<svg viewBox="0 0 1024 1024" xmlns="http://www.w3.org/2000/svg">
  <defs>
    <linearGradient id="bg4" x1="0" y1="0" x2="1" y2="1">
      <stop offset="0%" stop-color="#0F172A"/>
      <stop offset="100%" stop-color="#1E293B"/>
    </linearGradient>
    <linearGradient id="capLeft" x1="0" y1="0" x2="0" y2="1">
      <stop offset="0%" stop-color="#60A5FA"/>
      <stop offset="100%" stop-color="#2563EB"/>
    </linearGradient>
    <linearGradient id="capRight" x1="0" y1="0" x2="0" y2="1">
      <stop offset="0%" stop-color="#F8FAFC"/>
      <stop offset="100%" stop-color="#CBD5E1"/>
    </linearGradient>
    <filter id="capShadow4" x="-5%" y="-5%" width="110%" height="110%">
      <feGaussianBlur stdDeviation="12" in="SourceAlpha"/>
      <feOffset dx="0" dy="12"/>
      <feComponentTransfer><feFuncA type="linear" slope="0.4"/></feComponentTransfer>
      <feMerge>
        <feMergeNode/>
        <feMergeNode in="SourceGraphic"/>
      </feMerge>
    </filter>
  </defs>

  <!-- macOS rounded-square background (squircle frame) -->
  <rect width="1024" height="1024" rx="230" fill="url(#bg4)"/>

  <!-- Capsule tilted -40° — 1000×360, diagonal from upper-right to lower-left -->
  <g transform="translate(512 512) rotate(-40) translate(-500 -180)" filter="url(#capShadow4)">
    <!-- Left half (blue) -->
    <path d="
      M 180 0
      L 500 0
      L 500 360
      L 180 360
      C 0 360 0 0 180 0 Z"
      fill="url(#capLeft)"/>

    <!-- Right half (white) -->
    <path d="
      M 500 0
      L 820 0
      C 1000 0 1000 360 820 360
      L 500 360
      L 500 0 Z"
      fill="url(#capRight)"/>

    <!-- Center seam -->
    <line x1="500" y1="14" x2="500" y2="346" stroke="#0F172A" stroke-width="4" opacity="0.25"/>

    <!-- Glass highlight on top -->
    <path d="
      M 180 18
      L 820 18
      C 960 18 970 90 955 112
      L 215 112
      C 195 100 130 78 180 18 Z"
      fill="#FFFFFF" opacity="0.20"/>

    <!-- Waveform on blue (left) side -->
    <g fill="#FFFFFF" opacity="0.97">
      <rect x="205" y="160" width="22" height="40"  rx="10"/>
      <rect x="245" y="130" width="22" height="100" rx="10"/>
      <rect x="285" y="95"  width="22" height="170" rx="10"/>
      <rect x="325" y="60"  width="22" height="240" rx="10"/>
      <rect x="365" y="115" width="22" height="130" rx="10"/>
      <rect x="405" y="80"  width="22" height="200" rx="10"/>
      <rect x="445" y="140" width="22" height="80"  rx="10"/>
    </g>

    <!-- Waveform on white (right) side (blue bars) -->
    <g fill="#2563EB">
      <rect x="540" y="140" width="22" height="80"  rx="10"/>
      <rect x="580" y="105" width="22" height="150" rx="10"/>
      <rect x="620" y="70"  width="22" height="220" rx="10"/>
      <rect x="660" y="115" width="22" height="130" rx="10"/>
      <rect x="700" y="90"  width="22" height="180" rx="10"/>
      <rect x="740" y="140" width="22" height="80"  rx="10"/>
      <rect x="780" y="165" width="22" height="30"  rx="10"/>
    </g>
  </g>
</svg>
